<svg id="main" xmlns="http://www.w3.org/2000/svg" width="1000" height="1000" viewBox="0 0 1000 1000"><title>account-multiple</title><path d="M666.66667,541.66667c-12.08334,0-25.83333,0-40.41668,2.08334,48.33337,35,82.08334,81.25,82.08334,143.75V791.66667h250V687.5c0-97.08333-194.58333-145.83333-291.66666-145.83333m-333.33334,0c-97.08333,0-291.66666,48.75-291.66666,145.83333V791.66667H625V687.5c0-97.08333-194.58334-145.83333-291.66667-145.83333m0-83.33334a125,125,0,1,0-125-125,125,125,0,0,0,125,125m333.33334,0a125,125,0,1,0-125-125A125,125,0,0,0,666.66667,458.33333Z"/></svg>